<?xml version="1.0" encoding="UTF-8" standalone="no"?>
<svg
   width="24"
   height="24"
   viewBox="0 0 24 24"
   fill="none"
   version="1.1"
   id="svg6"
   sodipodi:docname="Bell.svg"
   inkscape:version="1.2.2 (b0a8486541, 2022-12-01)"
   xmlns:inkscape="http://www.inkscape.org/namespaces/inkscape"
   xmlns:sodipodi="http://sodipodi.sourceforge.net/DTD/sodipodi-0.dtd"
   xmlns="http://www.w3.org/2000/svg"
   xmlns:svg="http://www.w3.org/2000/svg">
  <defs
     id="defs10" />
  <sodipodi:namedview
     id="namedview8"
     pagecolor="#ffffff"
     bordercolor="#000000"
     borderopacity="0.25"
     inkscape:showpageshadow="2"
     inkscape:pageopacity="0.0"
     inkscape:pagecheckerboard="0"
     inkscape:deskcolor="#d1d1d1"
     showgrid="false"
     inkscape:zoom="21.75"
     inkscape:cx="4.4827586"
     inkscape:cy="12"
     inkscape:window-width="1366"
     inkscape:window-height="703"
     inkscape:window-x="0"
     inkscape:window-y="0"
     inkscape:window-maximized="1"
     inkscape:current-layer="svg6" />
  <path
     d="M18 8C18 6.4087 17.3679 4.88258 16.2426 3.75736C15.1174 2.63214 13.5913 2 12 2C10.4087 2 8.88258 2.63214 7.75736 3.75736C6.63214 4.88258 6 6.4087 6 8C6 15 3 17 3 17H21C21 17 18 15 18 8Z"
     stroke="#9B9B9B"
     stroke-width="2.33333"
     stroke-linecap="round"
     stroke-linejoin="round"
     id="path2"
     style="stroke:#fbf9f7;stroke-opacity:1" />
  <path
     d="M13.7295 21C13.5537 21.3031 13.3014 21.5547 12.9978 21.7295C12.6941 21.9044 12.3499 21.9965 11.9995 21.9965C11.6492 21.9965 11.3049 21.9044 11.0013 21.7295C10.6977 21.5547 10.4453 21.3031 10.2695 21"
     stroke="#9B9B9B"
     stroke-width="2.33333"
     stroke-linecap="round"
     stroke-linejoin="round"
     id="path4"
     style="stroke:#fbf9f7;stroke-opacity:1" />
</svg>
